<?xml version="1.0" encoding="UTF-8" standalone="no"?>
<svg width="84px" height="127px" viewBox="0 0 84 127" version="1.1" xmlns="http://www.w3.org/2000/svg" xmlns:xlink="http://www.w3.org/1999/xlink">
    <!-- Generator: Sketch 42 (36781) - http://www.bohemiancoding.com/sketch -->
    <title>HiveLogo</title>
    <desc>Created with Sketch.</desc>
    <defs>
        <polygon id="path-1" points="0.284300246 0.0145665 48.2442707 0.0145665 48.2442707 7.4448261 0.284300246 7.4448261 0.284300246 0.0145665"></polygon>
        <polygon id="path-3" points="18.9217694 27.5432986 18.9217694 0.243437734 0.249522208 0.243437734 0.249522208 27.5432986"></polygon>
    </defs>
    <g id="Splash-Login-" stroke="none" stroke-width="1" fill="none" fill-rule="evenodd">
        <g id="Quick-tour-page-01" transform="translate(-138.000000, -121.000000)">
            <g id="HiveLogo" transform="translate(138.000000, 121.000000)">
                <path d="M74.2482076,23.6855022 L45.8870376,25.869942 C43.6327603,26.0433527 41.3672397,26.0433527 39.1125608,25.869942 L10.7517924,23.6855022 C9.19740916,23.5659481 8,22.3306835 8,20.8471436 C8,19.2746067 9.33995787,18 10.9931213,18 L42.5,18 L74.0064771,18 C75.6600421,18 77,19.2746067 77,20.8471436 C77,22.3306835 75.8025908,23.5659481 74.2482076,23.6855022" id="Fill-1" fill="#FF7A00"></path>
                <path d="M81.3089813,37.4135153 L48.5242357,42.5681477 C44.8631846,43.1439508 41.1368154,43.1439508 37.4757643,42.5681477 L4.69101866,37.4135153 C3.14245568,37.1700964 2,35.8166707 2,34.2260043 L2,34.2260043 C2,32.3227238 3.61469233,30.8333789 5.48091966,31.0150164 L38.8640751,34.2663682 C41.6151376,34.5344997 44.3848624,34.5344997 47.1359249,34.2663682 L80.519486,31.0150164 C82.3853077,30.8333789 84,32.3227238 84,34.2260043 L84,34.2260043 C84,35.8166707 82.8575443,37.1700964 81.3089813,37.4135153" id="Fill-3" fill="#FF7A00"></path>
                <path d="M78.7210341,53.8039426 L48.3209355,61.2386433 C44.1708061,62.2537856 39.8295945,62.2537856 35.6790645,61.2386433 L5.27936645,53.8039426 C3.93978799,53.4764141 3,52.298096 3,50.9464035 L3,50.9464035 C3,49.1126362 4.69290028,47.7248568 6.53642302,48.0465015 L37.9628374,53.5336825 C40.6331813,54.0000674 43.3668187,54.0000674 46.0375632,53.5336825 L77.4639776,48.0465015 C79.3075003,47.7248568 81,49.1126362 81,50.9464035 L81,50.9464035 C81,52.298096 80.0606126,53.4764141 78.7210341,53.8039426" id="Fill-5" fill="#FF7A00"></path>
                <path d="M71.0473137,71.4549893 L50.0119224,78.6683472 C44.8339676,80.4438843 39.1660324,80.4438843 33.9880776,78.6683472 L12.9526863,71.4549893 C11.7809941,71.0533342 11,69.9958846 11,68.8115563 C11,66.9542361 12.861443,65.60787 14.7441895,66.1035375 L34.9226176,71.417155 C39.5539168,72.6366424 44.4460832,72.6366424 49.0769804,71.417155 L69.2558105,66.1035375 C71.138557,65.60787 73,66.9542361 73,68.8115563 C73,69.9958846 72.2190059,71.0533342 71.0473137,71.4549893" id="Fill-7" fill="#FF7A00"></path>
                <g id="Group-11" transform="translate(18.000000, 0.000000)">
                    <mask id="mask-2" fill="white">
                        <use xlink:href="#path-1"></use>
                    </mask>
                    <g id="Clip-10"></g>
                    <path d="M2.98201337,1.8001206 L14.6920926,0.5313411 C21.0518215,-0.1577664 27.476347,-0.1577664 33.8364783,0.5313411 L45.5465575,1.8001206 C47.0843707,1.9667016 48.2442707,3.1760946 48.2442707,4.6129491 L48.2442707,4.6129491 C48.2442707,6.1767936 46.8779069,7.4448261 45.1923896,7.4448261 L24.2642854,7.4448261 L3.33577882,7.4448261 C1.65066397,7.4448261 0.284300246,6.1767936 0.284300246,4.6129491 L0.284300246,4.6129491 C0.284300246,3.1760946 1.44420017,1.9667016 2.98201337,1.8001206" id="Fill-9" fill="#FF7A00" mask="url(#mask-2)"></path>
                </g>
                <path d="M20.0288325,126 C18.942132,126 18.057665,125.127482 18.057665,124.055462 L18.057665,114.443737 L3.94192893,114.443737 L3.94192893,124.055462 C3.94192893,125.127482 3.05746193,126 1.97076142,126 C0.884060914,126 0,125.127482 0,124.055462 L0,100.943737 C0,99.8717173 0.884060914,99 1.97076142,99 C3.05746193,99 3.94192893,99.8717173 3.94192893,100.943737 L3.94192893,110.555462 L18.057665,110.555462 L18.057665,100.943737 C18.057665,99.8717173 18.942132,99 20.0288325,99 C21.115533,99 22,99.8717173 22,100.943737 L22,124.055462 C22,125.127482 21.115533,126 20.0288325,126" id="Fill-12" fill="#FF7A00"></path>
                <path d="M30,126 C28.8974042,126 28,125.127482 28,124.055462 L28,100.943737 C28,99.8717173 28.8974042,99 30,99 C31.1025958,99 32,99.8717173 32,100.943737 L32,124.055462 C32,125.127482 31.1025958,126 30,126" id="Fill-14" fill="#FF7A00"></path>
                <g id="Group-18" transform="translate(65.000000, 99.000000)">
                    <mask id="mask-4" fill="white">
                        <use xlink:href="#path-3"></use>
                    </mask>
                    <g id="Clip-17"></g>
                    <path d="M2.17999846,27.5432986 C1.11573096,27.5432986 0.249522208,26.66109 0.249522208,25.5771643 L0.249522208,2.208762 C0.249522208,1.12483625 1.11573096,0.243437734 2.17999846,0.243437734 L16.3555166,0.243437734 C17.4193864,0.243437734 18.2855951,1.12483625 18.2855951,2.208762 C18.2855951,3.29268776 17.4193864,4.17489638 16.3555166,4.17489638 L4.110077,4.17489638 L4.110077,11.9272338 L13.8233076,11.9272338 C14.8875751,11.9272338 15.7537839,12.8094424 15.7537839,13.8933682 C15.7537839,14.9772939 14.8875751,15.8586925 13.8233076,15.8586925 L4.110077,15.8586925 L4.110077,23.61184 L16.9914522,23.61184 C18.0557197,23.61184 18.9219285,24.4936436 18.9219285,25.5771643 C18.9219285,26.66109 18.0557197,27.5432986 16.9914522,27.5432986 L2.17999846,27.5432986 Z" id="Fill-16" fill="#FF7A00" mask="url(#mask-4)"></path>
                </g>
                <path d="M49.4713129,125.999599 C49.4035456,125.998398 49.32843,125.99319 49.2451497,125.982374 L49.1977942,125.975163 C49.1124727,125.961543 49.0487877,125.947923 48.9851028,125.930697 L48.9393802,125.91908 C48.838954,125.889837 48.7634301,125.861795 48.6932134,125.83135 L48.6536144,125.812122 C48.5927871,125.784881 48.525428,125.748427 48.4601101,125.708368 L48.4209194,125.684332 C48.3449873,125.63546 48.2874259,125.592997 48.232314,125.548131 C48.1412771,125.472819 48.0828993,125.416335 48.0232967,125.351039 L47.9918624,125.314585 C47.9334846,125.246484 47.8906197,125.189599 47.849796,125.129911 C47.7914181,125.040979 47.7522274,124.972878 47.717119,124.900772 L47.686093,124.837478 L37.1731766,101.737255 C36.9576276,101.263353 36.942931,100.735371 37.1311282,100.249852 C37.3209584,99.7647329 37.6912293,99.3809644 38.1737653,99.1690504 C38.4313627,99.0568843 38.7028403,99 38.9812578,99 C39.7626232,99 40.4729554,99.4518694 40.790972,100.151706 L49.4998895,119.287255 L58.208807,100.151306 C58.5268236,99.4518694 59.2371558,99 60.0189294,99 C60.2969387,99 60.5684162,99.0564837 60.8251972,99.1682493 C61.3093662,99.3817656 61.6792288,99.7651335 61.8678343,100.249451 C62.0572562,100.734169 62.0425597,101.262151 61.8270106,101.736855 L51.298173,124.873131 L51.2863341,124.892359 C51.2573493,124.955252 51.2169338,125.02776 51.1728443,125.096261 C51.1083428,125.191202 51.063845,125.248887 51.0160813,125.30497 L50.9838306,125.342226 C50.9176962,125.415134 50.8597266,125.471617 50.7997157,125.523294 L50.767465,125.548531 C50.7103119,125.595 50.6531587,125.636662 50.5931479,125.674718 L50.5323206,125.713175 C50.472718,125.749228 50.4053589,125.785682 50.3347339,125.817329 C50.2355324,125.862196 50.1600085,125.889837 50.0750953,125.915074 L50.0261068,125.927893 C49.9473171,125.948724 49.8832239,125.962344 49.819539,125.97276 L49.7668764,125.980772 C49.6586936,125.994392 49.5762298,126 49.5002977,126 L49.4713129,125.999599 Z" id="Fill-19" fill="#FF7A00"></path>
            </g>
        </g>
    </g>
</svg>
